<svg width="945" height="278" viewBox="0 0 945 278" fill="none" xmlns="http://www.w3.org/2000/svg">
<mask id="mask0_0_4" style="mask-type:alpha" maskUnits="userSpaceOnUse" x="0" y="0" width="945" height="278">
<rect width="945" height="278" fill="black"/>
</mask>
<g mask="url(#mask0_0_4)">
<path d="M337.43 341.449C341.507 341.449 345.337 339.865 348.211 336.991L402.981 282.225C405.854 279.351 407.439 275.52 407.439 271.443C407.439 267.363 405.854 263.535 402.978 260.659C400.104 257.782 396.273 256.197 392.196 256.197C388.119 256.197 384.288 257.782 381.414 260.659L326.645 315.422C320.7 321.369 320.7 331.043 326.648 336.991C329.522 339.865 333.353 341.449 337.43 341.449" fill="#F2F2F2"/>
<path d="M683.753 255.197C683.753 251.126 682.165 247.299 679.285 244.415C676.411 241.539 672.581 239.957 668.504 239.957C664.427 239.957 660.596 241.539 657.722 244.419L492.845 409.287H535.977L679.288 265.982C682.165 263.099 683.753 259.274 683.753 255.197" fill="#F2F2F2"/>
<path d="M351.057 184.649L376.211 159.499C379.088 156.622 380.673 152.791 380.673 148.714C380.673 144.637 379.088 140.806 376.211 137.929C373.334 135.056 369.506 133.471 365.43 133.471C361.353 133.471 357.522 135.056 354.648 137.929L329.491 163.08C323.546 169.028 323.546 178.702 329.494 184.649C332.368 187.526 336.199 189.108 340.276 189.108C344.353 189.108 348.183 187.523 351.057 184.649" fill="#F2F2F2"/>
<path d="M201.1 409.29L471.522 138.871C474.399 135.994 475.981 132.166 475.981 128.086C475.981 124.009 474.396 120.178 471.519 117.301C468.645 114.428 464.815 112.843 460.738 112.843C456.661 112.843 452.833 114.428 449.956 117.301L157.968 409.29H201.1Z" fill="#F2F2F2"/>
<path d="M517.697 92.9078L572.463 38.1416C575.34 35.2677 576.925 31.437 576.925 27.36C576.925 23.2831 575.34 19.4523 572.463 16.5754C569.59 13.7016 565.759 12.1169 561.682 12.1169C557.605 12.1169 553.774 13.7016 550.9 16.5754L496.131 71.3386C490.186 77.2863 490.186 86.9601 496.134 92.9078C499.008 95.7847 502.839 97.3663 506.916 97.3663C510.993 97.3663 514.823 95.7817 517.697 92.9078Z" fill="#F2F2F2"/>
<path d="M467.538 196.098C470.412 198.975 474.242 200.557 478.319 200.557C482.399 200.557 486.227 198.972 489.101 196.098L573.646 111.557C576.523 108.683 578.104 104.852 578.104 100.775C578.104 96.6982 576.52 92.8674 573.643 89.9905C570.769 87.1166 566.938 85.532 562.861 85.532C558.784 85.532 554.956 87.1166 552.079 89.9905L467.538 174.529C461.59 180.477 461.59 190.151 467.538 196.098" fill="#F2F2F2"/>
<path d="M840.938 15.246C840.938 11.166 839.353 7.33833 836.477 4.4614C833.603 1.58755 829.772 0.00292969 825.695 0.00292969C821.618 0.00292969 817.787 1.58755 814.913 4.4614L410.082 409.29H453.214L836.48 26.0276C839.353 23.1537 840.938 19.323 840.938 15.246Z" fill="#F2F2F2"/>
<path d="M904.332 271.33C907.209 268.456 908.79 264.625 908.79 260.548C908.79 256.468 907.206 252.64 904.332 249.764C901.455 246.887 897.624 245.302 893.547 245.302C889.47 245.302 885.642 246.887 882.765 249.764L723.239 409.29H766.371L904.332 271.33Z" fill="#F2F2F2"/>
<path d="M929.892 128.72C925.815 128.72 921.984 130.305 919.11 133.178L772.279 280.006C766.334 285.951 766.334 295.628 772.282 301.573C775.156 304.449 778.987 306.034 783.064 306.034C787.141 306.034 790.972 304.449 793.845 301.573L940.676 154.748C943.55 151.871 945.135 148.043 945.135 143.963C945.135 139.886 943.55 136.055 940.673 133.178C937.799 130.305 933.969 128.72 929.892 128.72" fill="#F2F2F2"/>
<path d="M201.599 213.88C197.522 213.88 193.691 215.464 190.817 218.338L-0.134003 409.289H42.9984L212.383 239.908C215.257 237.031 216.842 233.203 216.842 229.123C216.842 225.046 215.257 221.215 212.38 218.338C209.506 215.464 205.676 213.88 201.599 213.88" fill="#F2F2F2"/>
<path d="M294.408 203.837C290.328 203.837 286.5 205.422 283.626 208.295L82.632 409.289H125.764L305.192 229.862C308.069 226.982 309.657 223.154 309.657 219.08C309.657 215.006 308.069 211.175 305.189 208.295C302.315 205.422 298.485 203.837 294.408 203.837" fill="#F2F2F2"/>
<path d="M564.87 163.763C560.793 163.763 556.962 165.348 554.088 168.221L313.02 409.289H356.152L575.654 189.791C578.528 186.914 580.113 183.086 580.113 179.006C580.113 174.929 578.528 171.098 575.651 168.221C572.777 165.348 568.947 163.763 564.87 163.763" fill="#F2F2F2"/>
<path d="M780.726 233.56C780.726 229.483 779.141 225.652 776.264 222.775C773.39 219.902 769.56 218.317 765.483 218.317C761.406 218.317 757.575 219.902 754.701 222.775L568.184 409.289H611.319L776.267 244.342C779.141 241.468 780.726 237.637 780.726 233.56" fill="#F2F2F2"/>
<path d="M433.464 251.739L458.615 226.588C461.492 223.711 463.079 219.88 463.079 215.803C463.079 211.726 461.492 207.895 458.615 205.019C455.744 202.145 451.91 200.56 447.833 200.56C443.756 200.56 439.929 202.145 437.052 205.019L411.898 230.169C405.95 236.117 405.95 245.791 411.898 251.739C414.772 254.616 418.602 256.197 422.679 256.197C426.759 256.197 430.587 254.612 433.464 251.739" fill="#F2F2F2"/>
</g>
</svg>
