<svg width="358" height="204" viewBox="0 0 358 204" fill="none" xmlns="http://www.w3.org/2000/svg">
<mask id="mask0_743_10592" style="mask-type:alpha" maskUnits="userSpaceOnUse" x="0" y="0" width="358" height="204">
<rect x="358" y="204" width="358" height="204" transform="rotate(-180 358 204)" fill="black"/>
</mask>
<g mask="url(#mask0_743_10592)">
<path d="M244.399 33.7555C246.428 33.7555 248.334 32.9671 249.764 31.5372L277.015 4.28809C278.218 3.08474 278.905 1.57065 279.129 0.0014534H259.839L239.034 20.8053C237.604 22.2368 236.815 24.1428 236.815 26.1713C236.815 28.1998 237.604 30.1058 239.035 31.5372C240.465 32.9671 242.371 33.7555 244.4 33.7555" fill="#F2F2F2"/>
<path d="M229.231 33.7549C227.202 33.7549 225.296 34.5433 223.866 35.9732L196.616 63.2223C195.186 64.6522 194.397 66.5583 194.397 68.5867C194.397 70.6168 195.186 72.5213 196.617 73.9527C198.047 75.3841 199.953 76.1725 201.982 76.1725C204.01 76.1725 205.916 75.3841 207.346 73.9527L234.597 46.7051C237.554 43.7458 237.554 38.9325 234.595 35.9732C233.165 34.5433 231.259 33.7549 229.231 33.7549" fill="#F2F2F2"/>
<path d="M56.9169 76.6698C56.9169 78.6952 57.7068 80.5997 59.1398 82.0342C60.5697 83.4656 62.4757 84.2525 64.5042 84.2525C66.5327 84.2525 68.4387 83.4656 69.8686 82.0327L151.904 0.00205231H130.443L59.1382 71.3039C57.7068 72.7384 56.9169 74.6413 56.9169 76.6698Z" fill="#F2F2F2"/>
<path d="M42.7701 16.1093C42.7701 18.1378 43.5586 20.0438 44.99 21.4752C46.4199 22.9051 48.3259 23.6935 50.3544 23.6935C52.3829 23.6935 54.2889 22.9051 55.7188 21.4752L77.1948 0.000776291L55.7326 0.000776291L44.9885 10.7449C43.5586 12.1748 42.7701 14.0808 42.7701 16.1093" fill="#F2F2F2"/>
<path d="M222.45 111.771L209.935 124.285C208.503 125.717 207.715 127.623 207.715 129.651C207.715 131.68 208.503 133.586 209.935 135.017C211.366 136.447 213.271 137.236 215.299 137.236C217.328 137.236 219.234 136.447 220.664 135.017L233.181 122.503C236.138 119.544 236.138 114.731 233.179 111.771C231.749 110.34 229.843 109.553 227.815 109.553C225.786 109.553 223.88 110.342 222.45 111.771" fill="#F2F2F2"/>
<path d="M297.062 0.000564575L162.513 134.548C161.081 135.98 160.294 137.884 160.294 139.914C160.294 141.943 161.083 143.849 162.514 145.28C163.944 146.71 165.85 147.499 167.879 147.499C169.907 147.499 171.812 146.71 173.243 145.28L318.523 0.000564575H297.062Z" fill="#F2F2F2"/>
<path d="M29.8232 25.9135L17.3079 38.4273C15.8764 39.8588 15.088 41.7648 15.088 43.7933C15.088 45.8218 15.8764 47.7278 17.3079 49.1592C18.7378 50.5891 20.6438 51.3775 22.6722 51.3775C24.7007 51.3775 26.6068 50.5891 28.0367 49.1592L40.5536 36.6453C43.5114 33.6861 43.5114 28.8728 40.5521 25.9135C39.1222 24.4821 37.2162 23.6952 35.1877 23.6952C33.1592 23.6952 31.2532 24.4836 29.8232 25.9135Z" fill="#F2F2F2"/>
<path d="M139.538 157.418L112.289 184.667C110.858 186.097 110.069 188.003 110.069 190.031C110.069 192.06 110.858 193.966 112.289 195.397C113.719 196.827 115.625 197.616 117.654 197.616C119.682 197.616 121.588 196.827 123.018 195.397L150.269 168.15C153.226 165.19 153.226 160.377 150.267 157.418C148.837 155.986 146.931 155.199 144.903 155.199C142.874 155.199 140.968 155.988 139.538 157.418Z" fill="#F2F2F2"/>
<path d="M164.495 106.075C163.065 104.643 161.159 103.857 159.131 103.857C157.101 103.857 155.196 104.645 153.766 106.075L111.701 148.139C110.27 149.569 109.483 151.475 109.483 153.503C109.483 155.532 110.271 157.438 111.702 158.869C113.132 160.299 115.038 161.088 117.067 161.088C119.095 161.088 121 160.299 122.431 158.869L164.495 116.807C167.455 113.847 167.455 109.034 164.495 106.075" fill="#F2F2F2"/>
<path d="M-21.2911 196.058C-21.2911 198.088 -20.5027 199.993 -19.0712 201.424C-17.6413 202.854 -15.7353 203.643 -13.7069 203.643C-11.6783 203.643 -9.77234 202.854 -8.34247 201.424L193.083 0.000549316H171.622L-19.0727 190.694C-20.5027 192.124 -21.2911 194.03 -21.2911 196.058" fill="#F2F2F2"/>
<path d="M-52.8334 68.6433C-54.2648 70.0732 -55.0517 71.9793 -55.0517 74.0077C-55.0517 76.0378 -54.2634 77.9422 -52.8334 79.3737C-51.402 80.8051 -49.496 81.5935 -47.4675 81.5935C-45.439 81.5935 -43.5346 80.8051 -42.1031 79.3737L37.2698 0.000778198H15.8091L-52.8334 68.6433Z" fill="#F2F2F2"/>
<path d="M-65.551 139.6C-63.5225 139.6 -61.6165 138.811 -60.1866 137.381L12.8697 64.3265C15.8274 61.3687 15.8274 56.5539 12.8681 53.5962C11.4382 52.1647 9.5322 51.3763 7.50372 51.3763C5.47522 51.3763 3.56921 52.1647 2.13934 53.5962L-70.9169 126.649C-72.3468 128.081 -73.1353 129.985 -73.1353 132.015C-73.1353 134.044 -72.3468 135.95 -70.9154 137.381C-69.4855 138.811 -67.5795 139.6 -65.551 139.6" fill="#F2F2F2"/>
<path d="M296.814 97.2275C298.843 97.2275 300.749 96.4391 302.178 95.0092L397.187 0.000892639H375.726L291.448 84.2774C290.018 85.7088 289.23 87.6133 289.23 89.6433C289.23 91.6718 290.018 93.5778 291.45 95.0092C292.88 96.4391 294.786 97.2275 296.814 97.2275" fill="#F2F2F2"/>
<path d="M250.636 102.225C252.666 102.225 254.571 101.436 256 100.006L356.006 0.000900269H334.545L245.27 89.2759C243.839 90.7088 243.049 92.6133 243.049 94.6403C243.049 96.6672 243.839 98.5732 245.272 100.006C246.702 101.436 248.608 102.225 250.636 102.225" fill="#F2F2F2"/>
<path d="M116.067 122.164C118.096 122.164 120.002 121.375 121.432 119.945L241.376 0.000999451H219.915L110.701 109.213C109.271 110.645 108.483 112.549 108.483 114.579C108.483 116.608 109.271 118.514 110.703 119.945C112.133 121.375 114.039 122.164 116.067 122.164" fill="#F2F2F2"/>
<path d="M8.66784 87.4363C8.66784 89.4648 9.45623 91.3708 10.8877 92.8022C12.3176 94.2321 14.2236 95.0205 16.2521 95.0205C18.2806 95.0205 20.1866 94.2321 21.6165 92.8022L114.419 0.00147247H92.9566L10.8862 82.0719C9.45624 83.5018 8.66785 85.4078 8.66785 87.4363" fill="#F2F2F2"/>
<path d="M181.449 78.3915L168.935 90.9053C167.504 92.3368 166.714 94.2428 166.714 96.2713C166.714 98.2998 167.504 100.206 168.935 101.637C170.363 103.067 172.271 103.856 174.299 103.856C176.328 103.856 178.232 103.067 179.664 101.637L192.179 89.1233C195.139 86.164 195.139 81.3508 192.179 78.3915C190.749 76.9601 188.843 76.1731 186.815 76.1731C184.785 76.1731 182.88 76.9616 181.449 78.3915" fill="#F2F2F2"/>
</g>
</svg>
