<svg xmlns="http://www.w3.org/2000/svg" width="658" height="285" viewBox="0 0 658 285" fill="none">
<mask id="mask0_57_2904" style="mask-type:alpha" maskUnits="userSpaceOnUse" x="0" y="0" width="659" height="285">
<rect x="0.0161133" y="0.100098" width="657.984" height="284.899" fill="black"/>
</mask>
<g mask="url(#mask0_57_2904)">
<path d="M213.767 237.777C210.929 237.777 208.262 238.88 206.262 240.881L168.138 279.002C166.455 280.686 165.493 282.804 165.18 284.999H192.167L221.274 255.895C223.274 253.892 224.377 251.225 224.377 248.388C224.377 245.55 223.274 242.883 221.272 240.881C219.271 238.88 216.605 237.777 213.767 237.777" fill="#F2F2F2"/>
<path d="M234.988 237.777C237.826 237.777 240.493 236.674 242.493 234.673L280.617 196.552C282.618 194.551 283.721 191.885 283.721 189.047C283.721 186.207 282.618 183.542 280.615 181.54C278.614 179.537 275.948 178.434 273.11 178.434C270.272 178.434 267.606 179.537 265.605 181.54L227.481 219.659C223.343 223.799 223.343 230.533 227.484 234.673C229.484 236.674 232.15 237.777 234.988 237.777" fill="#F2F2F2"/>
<path d="M476.058 177.738C476.058 174.905 474.953 172.24 472.948 170.234C470.947 168.231 468.281 167.13 465.443 167.13C462.605 167.13 459.939 168.231 457.938 170.236L343.17 284.997H373.194L472.95 185.245C474.953 183.239 476.058 180.576 476.058 177.738" fill="#F2F2F2"/>
<path d="M495.847 262.464C495.847 259.626 494.744 256.959 492.742 254.957C490.741 252.956 488.075 251.853 485.237 251.853C482.399 251.853 479.733 252.956 477.732 254.957L447.687 284.999H477.713L492.744 269.968C494.744 267.968 495.847 265.301 495.847 262.464" fill="#F2F2F2"/>
<path d="M244.474 128.632L261.983 111.125C263.986 109.122 265.089 106.455 265.089 103.618C265.089 100.78 263.986 98.1131 261.983 96.1105C259.981 94.1101 257.316 93.0071 254.478 93.0071C251.641 93.0071 248.974 94.1101 246.974 96.1105L229.462 113.618C225.324 117.758 225.324 124.491 229.464 128.632C231.465 130.634 234.131 131.735 236.969 131.735C239.807 131.735 242.474 130.632 244.474 128.632" fill="#F2F2F2"/>
<path d="M140.092 284.999L328.327 96.7655C330.33 94.7629 331.431 92.0985 331.431 89.2585C331.431 86.4206 330.328 83.7541 328.325 81.7515C326.325 79.7511 323.658 78.6481 320.82 78.6481C317.983 78.6481 315.318 79.7511 313.316 81.7515L110.068 284.999H140.092Z" fill="#F2F2F2"/>
<path d="M513.96 248.748L531.469 231.241C533.472 229.238 534.575 226.571 534.575 223.734C534.575 220.896 533.472 218.229 531.469 216.227C529.469 214.226 526.802 213.123 523.965 213.123C521.127 213.123 518.46 214.226 516.46 216.227L498.948 233.734C494.81 237.874 494.81 244.607 498.951 248.748C500.951 250.75 503.618 251.851 506.455 251.851C509.293 251.851 511.96 250.748 513.96 248.748" fill="#F2F2F2"/>
<path d="M360.469 64.7712L398.591 26.6494C400.593 24.649 401.696 21.9824 401.696 19.1446C401.696 16.3067 400.593 13.6401 398.591 11.6376C396.59 9.63715 393.924 8.53412 391.086 8.53412C388.248 8.53412 385.582 9.63714 383.581 11.6376L345.457 49.7572C341.319 53.8973 341.319 60.6311 345.459 64.7712C347.46 66.7737 350.126 67.8746 352.964 67.8746C355.802 67.8746 358.469 66.7716 360.469 64.7712" fill="#F2F2F2"/>
<path d="M325.553 136.601C327.554 138.604 330.22 139.705 333.058 139.705C335.898 139.705 338.563 138.602 340.563 136.601L399.413 77.7534C401.416 75.753 402.516 73.0864 402.516 70.2486C402.516 67.4107 401.413 64.7442 399.411 62.7416C397.41 60.7412 394.744 59.6381 391.906 59.6381C389.068 59.6381 386.404 60.7411 384.401 62.7416L325.553 121.587C321.413 125.727 321.413 132.461 325.553 136.601Z" fill="#F2F2F2"/>
<path d="M585.471 10.7126C585.471 7.87253 584.368 5.20814 582.365 3.20557C580.365 1.20514 577.698 0.102112 574.861 0.102112C572.023 0.102112 569.356 1.20513 567.356 3.20557L285.56 284.999H315.584L582.367 18.2174C584.368 16.217 585.471 13.5504 585.471 10.7126Z" fill="#F2F2F2"/>
<path d="M611.412 262.522C613.415 260.521 614.516 257.855 614.516 255.017C614.516 252.177 613.413 249.512 611.412 247.51C609.409 245.507 606.743 244.404 603.905 244.404C601.067 244.404 598.403 245.507 596.4 247.51L558.908 285H588.934L611.412 262.522Z" fill="#F2F2F2"/>
<path d="M629.598 188.968C631.601 186.967 632.702 184.301 632.702 181.463C632.702 178.623 631.599 175.958 629.598 173.956C627.596 171.953 624.929 170.85 622.091 170.85C619.254 170.85 616.589 171.953 614.587 173.956L503.543 284.999H533.567L629.598 188.968Z" fill="#F2F2F2"/>
<path d="M647.39 89.7001C644.553 89.7001 641.886 90.8031 639.886 92.8035L537.679 195.008C533.541 199.146 533.541 205.882 537.682 210.02C539.682 212.022 542.348 213.125 545.186 213.125C548.024 213.125 550.691 212.022 552.691 210.02L654.898 107.818C656.898 105.815 658.001 103.151 658.001 100.311C658.001 97.4726 656.898 94.8061 654.895 92.8035C652.895 90.8031 650.228 89.7001 647.39 89.7001" fill="#F2F2F2"/>
<path d="M140.438 148.978C137.601 148.978 134.934 150.081 132.934 152.082L0.0161133 284.999H30.0398L147.945 167.095C149.946 165.093 151.049 162.429 151.049 159.589C151.049 156.751 149.946 154.084 147.943 152.082C145.943 150.081 143.276 148.978 140.438 148.978" fill="#F2F2F2"/>
<path d="M205.041 141.987C202.201 141.987 199.537 143.09 197.536 145.091L57.6282 284.999H87.6518L212.548 160.102C214.551 158.098 215.656 155.433 215.656 152.598C215.656 149.762 214.551 147.095 212.546 145.091C210.546 143.09 207.879 141.987 205.041 141.987Z" fill="#F2F2F2"/>
<path d="M393.305 114.093C390.467 114.093 387.801 115.196 385.8 117.197L217.997 285H248.021L400.812 132.21C402.812 130.208 403.915 127.544 403.915 124.704C403.915 121.866 402.812 119.199 400.81 117.197C398.809 115.196 396.143 114.093 393.305 114.093" fill="#F2F2F2"/>
<path d="M543.559 162.677C543.559 159.84 542.455 157.173 540.453 155.171C538.452 153.17 535.786 152.067 532.948 152.067C530.11 152.067 527.444 153.17 525.443 155.171L395.612 285H425.638L540.455 170.182C542.455 168.182 543.559 165.515 543.559 162.678" fill="#F2F2F2"/>
<path d="M301.835 175.331L319.342 157.824C321.344 155.821 322.45 153.154 322.45 150.317C322.45 147.479 321.345 144.812 319.342 142.81C317.344 140.809 314.675 139.706 311.837 139.706C308.999 139.706 306.335 140.809 304.332 142.81L286.823 160.317C282.683 164.457 282.683 171.19 286.823 175.331C288.824 177.333 291.49 178.434 294.328 178.434C297.168 178.434 299.832 177.331 301.835 175.331Z" fill="#F2F2F2"/>
</g>
</svg>