<svg width="974" height="422" viewBox="0 0 974 422" fill="none" xmlns="http://www.w3.org/2000/svg">
<g opacity="0.2">
<path d="M657.372 70.6184C661.567 70.6184 665.51 68.9877 668.467 66.0303L724.829 9.6711C727.318 7.18222 728.74 4.05066 729.202 0.805092H689.305L646.274 43.8336C643.316 46.7942 641.686 50.7364 641.686 54.9319C641.686 59.1275 643.316 63.0697 646.277 66.0303C649.234 68.9877 653.176 70.6184 657.372 70.6184" fill="#022B3C"/>
<path d="M625.999 70.6185C621.804 70.6185 617.862 72.2492 614.904 75.2066L558.542 131.566C555.584 134.523 553.954 138.465 553.954 142.661C553.954 146.86 555.584 150.799 558.545 153.759C561.502 156.72 565.445 158.351 569.64 158.351C573.836 158.351 577.778 156.72 580.735 153.759L637.098 97.4033C643.215 91.2826 643.215 81.3273 637.094 75.2066C634.137 72.2492 630.195 70.6185 625.999 70.6185" fill="#022B3C"/>
<path d="M269.603 159.379C269.603 163.568 271.237 167.507 274.2 170.474C277.158 173.435 281.1 175.062 285.295 175.062C289.491 175.062 293.433 173.435 296.391 170.471L466.063 0.8078H421.676L274.197 148.281C271.236 151.248 269.603 155.184 269.603 159.379" fill="#022B3C"/>
<path d="M240.345 34.1219C240.345 38.3174 241.976 42.2596 244.936 45.2202C247.894 48.1776 251.836 49.8083 256.032 49.8083C260.227 49.8083 264.169 48.1776 267.127 45.2202L311.545 0.804779L267.155 0.804779L244.933 23.0268C241.976 25.9842 240.345 29.9264 240.345 34.1219" fill="#022B3C"/>
<path d="M611.975 231.979L586.09 257.862C583.129 260.822 581.498 264.765 581.498 268.96C581.498 273.156 583.129 277.098 586.09 280.058C589.05 283.016 592.989 284.646 597.185 284.646C601.38 284.646 605.323 283.016 608.28 280.058L634.169 254.176C640.286 248.055 640.286 238.1 634.165 231.979C631.208 229.019 627.266 227.391 623.07 227.391C618.875 227.391 614.933 229.022 611.975 231.979" fill="#022B3C"/>
<path d="M766.294 0.805389L488.007 279.09C485.046 282.05 483.419 285.989 483.419 290.188C483.419 294.384 485.049 298.326 488.01 301.286C490.967 304.244 494.91 305.875 499.105 305.875C503.301 305.875 507.24 304.244 510.2 301.286L810.681 0.805389H766.294Z" fill="#022B3C"/>
<path d="M213.566 54.3993L187.681 80.2816C184.72 83.2422 183.089 87.1844 183.089 91.3799C183.089 95.5755 184.72 99.5176 187.681 102.478C190.638 105.436 194.58 107.066 198.776 107.066C202.971 107.066 206.914 105.436 209.871 102.478L235.76 76.5959C241.877 70.4752 241.877 60.5199 235.756 54.3993C232.799 51.4387 228.857 49.8111 224.661 49.8111C220.466 49.8111 216.524 51.4418 213.566 54.3993" fill="#022B3C"/>
<path d="M440.488 326.39L384.129 382.749C381.168 385.706 379.538 389.649 379.538 393.844C379.538 398.04 381.168 401.982 384.129 404.942C387.086 407.9 391.029 409.531 395.224 409.531C399.42 409.531 403.362 407.9 406.319 404.942L462.682 348.586C468.799 342.466 468.799 332.51 462.678 326.39C459.721 323.429 455.779 321.802 451.583 321.802C447.388 321.802 443.446 323.432 440.488 326.39" fill="#022B3C"/>
<path d="M492.107 220.197C489.149 217.237 485.207 215.609 481.012 215.609C476.813 215.609 472.874 217.24 469.917 220.197L382.913 307.198C379.952 310.155 378.325 314.098 378.325 318.293C378.325 322.489 379.955 326.431 382.916 329.391C385.873 332.349 389.815 333.979 394.011 333.979C398.207 333.979 402.146 332.349 405.106 329.391L492.107 242.394C498.228 236.273 498.228 226.318 492.107 220.197" fill="#022B3C"/>
<path d="M107.845 406.31C107.845 410.509 109.476 414.448 112.437 417.408C115.394 420.366 119.336 421.997 123.532 421.997C127.727 421.997 131.669 420.366 134.627 417.408L551.233 0.805206H506.846L112.434 395.215C109.476 398.172 107.845 402.115 107.845 406.31" fill="#022B3C"/>
<path d="M69.4938 34.0368C66.5331 36.9942 64.9056 40.9364 64.9056 45.1319C64.9056 49.3306 66.5363 53.2696 69.4938 56.2302C72.4543 59.1908 76.3965 60.8215 80.592 60.8215C84.7875 60.8215 88.7267 59.1908 91.6872 56.2302L147.115 0.805134L102.725 0.805134L69.4938 34.0368Z" fill="#022B3C"/>
<path d="M42.6075 142.778C39.6469 145.735 38.0193 149.677 38.0193 153.873C38.0193 158.072 39.6499 162.011 42.6075 164.971C45.568 167.932 49.5102 169.562 53.7057 169.562C57.9013 169.562 61.8402 167.932 64.8009 164.971L228.967 0.804733H184.58L42.6075 142.778Z" fill="#022B3C"/>
<path d="M16.3047 289.535C20.5001 289.535 24.4425 287.905 27.3999 284.947L178.502 133.849C184.619 127.731 184.619 117.773 178.498 111.655C175.541 108.695 171.599 107.064 167.403 107.064C163.208 107.064 159.266 108.695 156.308 111.655L5.20639 262.751C2.24899 265.711 0.618195 269.65 0.618195 273.849C0.618195 278.044 2.24899 281.987 5.20956 284.947C8.16696 287.905 12.1092 289.535 16.3047 289.535" fill="#022B3C"/>
<path d="M765.781 201.898C769.977 201.898 773.919 200.268 776.876 197.31L973.381 0.805206H928.994L754.683 175.114C751.725 178.074 750.095 182.013 750.095 186.212C750.095 190.408 751.725 194.35 754.686 197.31C757.643 200.268 761.586 201.898 765.781 201.898" fill="#022B3C"/>
<path d="M670.272 212.233C674.471 212.233 678.41 210.603 681.367 207.645L888.207 0.804932H843.82L659.174 185.452C656.213 188.416 654.579 192.355 654.579 196.547C654.579 200.739 656.213 204.681 659.177 207.645C662.134 210.603 666.076 212.233 670.272 212.233" fill="#022B3C"/>
<path d="M391.943 253.472C396.139 253.472 400.081 251.842 403.039 248.884L651.118 0.804443H606.731L380.845 226.688C377.888 229.648 376.257 233.587 376.257 237.786C376.257 241.981 377.888 245.924 380.848 248.884C383.806 251.842 387.748 253.472 391.943 253.472" fill="#022B3C"/>
<path d="M169.809 181.646C169.809 185.842 171.44 189.784 174.401 192.744C177.358 195.702 181.3 197.333 185.496 197.333C189.691 197.333 193.634 195.702 196.591 192.744L388.533 0.805237H344.143L174.398 170.551C171.44 173.508 169.809 177.451 169.809 181.646" fill="#022B3C"/>
<path d="M527.172 162.938L501.29 188.821C498.329 191.781 496.695 195.724 496.695 199.919C496.695 204.115 498.329 208.057 501.29 211.017C504.244 213.975 508.19 215.605 512.385 215.605C516.581 215.605 520.52 213.975 523.48 211.017L549.366 185.135C555.487 179.014 555.487 169.059 549.366 162.938C546.408 159.978 542.466 158.35 538.271 158.35C534.072 158.35 530.133 159.981 527.172 162.938" fill="#022B3C"/>
</g>
</svg>
