<svg width="981" height="980" viewBox="0 0 981 980" fill="none" xmlns="http://www.w3.org/2000/svg">
<path d="M387.64 43.83V87.85L370.99 92.83C348.21 99.72 315.67 113.31 295.38 124.03L278.54 133.03L247.91 102.4L217.28 71.77L145.12 144.12L72.77 216.28L103.39 246.9L133.82 277.33L122.14 300.87C109.32 326.33 98.41 353.51 93.05 373.22L89.6 385.66L45.19 386.23L0.97998 386.61V490V593.36L45.19 593.74L89.41 594.31L94.77 611.54C102.23 636.61 108.74 652.31 121.95 678.92L133.82 702.65L103.4 733.09L72.78 763.72L145.13 835.88L217.29 908.23L247.72 877.8L278.35 847.17L301.89 859.04C328.69 872.44 347.06 879.71 370.99 887.18L387.64 892.16V936.18V980H491H594.36V936.17V892.15L611.2 887.17C633.78 880.28 666.32 866.69 686.61 855.97L703.45 846.97L734.08 877.6L764.7 908.23L836.86 835.88L909.21 763.72L878.6 733.09L847.97 702.46L860.22 678.34C873.81 650.97 879.74 636.42 887.21 611.54L892.57 594.31L936.79 593.74L981 593.36V490V386.64L936.79 386.26L892.57 385.69L887.21 368.46C879.74 343.58 874 329.41 860.22 301.85L848.16 277.54L878.59 246.91L909.22 216.29L836.87 144.13L764.71 71.78L734.28 102.21L703.65 132.84L680.11 120.97C653.31 107.57 634.94 100.3 611.01 92.83L594.36 87.85V43.83V-1.46031e-05H491H387.64V43.83ZM557.99 74.27V114.08L585.74 122.12C624.79 133.22 648.33 142.98 680.49 160.78L708.24 176.09L736.38 147.95L764.71 119.62L812.56 167.47L860.41 215.32L832.66 243.07C817.35 258.38 804.91 271.4 804.91 271.97C804.91 272.54 811.61 285.18 819.84 299.92C837.83 332.08 848.17 357.34 858.89 395.05L866.74 423H906.74H946.55V490V556.99H906.74H866.74L858.89 584.93C846.26 629.34 836.88 650.77 808.55 699.97L803.96 708.2L832.1 736.34L860.43 764.67L812.58 812.52L764.73 860.37L736.4 832.04L708.26 803.9L681.08 818.83C648.92 836.63 624.23 846.78 586.14 857.88L558 865.92V905.73V945.54H491H424.01V905.54V865.73L404.68 860.56C361.81 848.89 329.46 835.68 293.09 814.62L273.95 803.71L245.62 832.04L217.29 860.37L169.44 812.52L121.59 764.67L149.73 736.53C174.04 712.22 177.67 707.63 175.95 704.76C174.8 702.85 167.72 690.21 160.26 676.62C143.42 645.99 133.65 621.49 123.13 585.13L115.28 556.99H75.28H35.45V490V423.01H75.26H115.26L123.11 395.06C133.83 357.35 144.16 332.09 162.16 299.93C170.39 285.19 177.09 272.56 177.09 271.98C177.09 271.41 164.65 258.39 149.34 243.08L121.59 215.33L169.44 167.48L217.29 119.63L245.62 147.96L273.95 176.29L295 164.42C332.52 142.98 361.8 130.92 404.68 119.44L424.01 114.27V74.4599V34.4599H491H557.99V74.27Z" fill="white"/>
</svg>
